<?xml version="1.0" encoding="UTF-8"?>
<svg width="32px" height="32px" viewBox="0 0 32 32" version="1.1" xmlns="http://www.w3.org/2000/svg" xmlns:xlink="http://www.w3.org/1999/xlink">
    <!-- Generator: Sketch 58 (84663) - https://sketch.com -->
    <title>fb</title>
    <desc>Created with Sketch.</desc>
    <g id="Styleguide" stroke="none" stroke-width="1" fill="none" fill-rule="evenodd">
        <g transform="translate(-649.000000, -6058.000000)" fill="#FFFFFF" fill-rule="nonzero" id="иконки-соц.сетей">
            <g transform="translate(534.000000, 5982.000000)">
                <g id="fb" transform="translate(115.000000, 76.000000)">
                    <path d="M16,0 C7.164,0 0,7.163 0,16 C0,24.837 7.164,32 16,32 C24.837,32 32,24.836 32,16 C32,7.164 24.837,0 16,0 Z M20.062,9.455 L17.041,9.455 L17.041,12.899 L20.062,12.899 L20.062,16.344 L17.041,16.344 L17.041,24.954 L14.02,24.954 L14.02,16.344 L11,16.344 L11,12.899 L14.021,12.899 L14.021,9.455 C14.021,7.553 15.374,6.01 17.042,6.01 L20.063,6.01 L20.063,9.455 L20.062,9.455 Z" id="Shape"></path>
                </g>
            </g>
        </g>
    </g>
</svg>